<mxfile host="app.diagrams.net" modified="2022-06-12T21:48:40.775Z" agent="5.0 (X11)" etag="U9oYRvikWdOxu1nR71Aj" version="20.0.1" type="github">
  <diagram id="FDhtGpcxATnB98PyFVYD" name="Page-1">
    <mxGraphModel dx="1422" dy="788" grid="1" gridSize="10" guides="1" tooltips="1" connect="1" arrows="1" fold="1" page="1" pageScale="1" pageWidth="850" pageHeight="1100" math="0" shadow="0">
      <root>
        <mxCell id="0" />
        <mxCell id="1" parent="0" />
        <mxCell id="DoLM2WJsjHdd2W4i55Rh-4" style="edgeStyle=orthogonalEdgeStyle;rounded=0;orthogonalLoop=1;jettySize=auto;html=1;entryX=0;entryY=0.5;entryDx=0;entryDy=0;" edge="1" parent="1" source="DoLM2WJsjHdd2W4i55Rh-2" target="DoLM2WJsjHdd2W4i55Rh-3">
          <mxGeometry relative="1" as="geometry" />
        </mxCell>
        <mxCell id="DoLM2WJsjHdd2W4i55Rh-6" style="edgeStyle=orthogonalEdgeStyle;rounded=0;orthogonalLoop=1;jettySize=auto;html=1;entryX=0;entryY=0.5;entryDx=0;entryDy=0;" edge="1" parent="1" source="DoLM2WJsjHdd2W4i55Rh-2" target="DoLM2WJsjHdd2W4i55Rh-5">
          <mxGeometry relative="1" as="geometry" />
        </mxCell>
        <mxCell id="DoLM2WJsjHdd2W4i55Rh-8" value="" style="edgeStyle=orthogonalEdgeStyle;rounded=0;orthogonalLoop=1;jettySize=auto;html=1;" edge="1" parent="1" source="DoLM2WJsjHdd2W4i55Rh-2" target="DoLM2WJsjHdd2W4i55Rh-7">
          <mxGeometry relative="1" as="geometry" />
        </mxCell>
        <mxCell id="DoLM2WJsjHdd2W4i55Rh-2" value="Project" style="rounded=0;whiteSpace=wrap;html=1;" vertex="1" parent="1">
          <mxGeometry x="80" y="220" width="120" height="60" as="geometry" />
        </mxCell>
        <mxCell id="DoLM2WJsjHdd2W4i55Rh-3" value="Repo" style="rounded=0;whiteSpace=wrap;html=1;" vertex="1" parent="1">
          <mxGeometry x="240" y="180" width="120" height="60" as="geometry" />
        </mxCell>
        <mxCell id="DoLM2WJsjHdd2W4i55Rh-5" value="Repo" style="rounded=0;whiteSpace=wrap;html=1;" vertex="1" parent="1">
          <mxGeometry x="240" y="260" width="120" height="60" as="geometry" />
        </mxCell>
        <mxCell id="DoLM2WJsjHdd2W4i55Rh-7" value="Environment" style="whiteSpace=wrap;html=1;rounded=0;" vertex="1" parent="1">
          <mxGeometry x="80" y="340" width="120" height="60" as="geometry" />
        </mxCell>
        <mxCell id="DoLM2WJsjHdd2W4i55Rh-9" value="&lt;div&gt;target branch&lt;/div&gt;&lt;div&gt;previous branch&lt;/div&gt;" style="rounded=0;whiteSpace=wrap;html=1;" vertex="1" parent="1">
          <mxGeometry x="80" y="400" width="120" height="60" as="geometry" />
        </mxCell>
      </root>
    </mxGraphModel>
  </diagram>
</mxfile>
